 <svg xmlns="http://www.w3.org/2000/svg" xmlns:xlink="http://www.w3.org/1999/xlink" width="600" height="425" viewBox="0 0 600 425">
  <defs>
    <filter id="Student_Lifecycle_Management" x="191.102" y="329.281" width="210" height="77" filterUnits="userSpaceOnUse">
      <feOffset dy="3" input="SourceAlpha"/>
      <feGaussianBlur stdDeviation="3" result="blur"/>
      <feFlood flood-opacity="0.161"/>
      <feComposite operator="in" in2="blur"/>
      <feComposite in="SourceGraphic"/>
    </filter>
    <linearGradient id="linear-gradient" x1="0.269" y1="-0.068" x2="0.958" y2="1.976" gradientUnits="objectBoundingBox">
      <stop offset="0" stop-color="#57ece7"/>
      <stop offset="1" stop-color="#fff"/>
    </linearGradient>
    <filter id="Path_54065" x="314.102" y="-1.883" width="168.149" height="159.955" filterUnits="userSpaceOnUse">
      <feOffset dy="3" input="SourceAlpha"/>
      <feGaussianBlur stdDeviation="3" result="blur-2"/>
      <feFlood flood-opacity="0.161"/>
      <feComposite operator="in" in2="blur-2"/>
      <feComposite in="SourceGraphic"/>
    </filter>
    <linearGradient id="linear-gradient-2" x1="0.171" y1="0.147" x2="0.982" y2="1.491" gradientUnits="objectBoundingBox">
      <stop offset="0" stop-color="#d5d5d5"/>
      <stop offset="1" stop-color="#fff"/>
    </linearGradient>
    <filter id="Path_54063" x="411.395" y="81.809" width="159.777" height="168.439" filterUnits="userSpaceOnUse">
      <feOffset dy="3" input="SourceAlpha"/>
      <feGaussianBlur stdDeviation="3" result="blur-3"/>
      <feFlood flood-opacity="0.161"/>
      <feComposite operator="in" in2="blur-3"/>
      <feComposite in="SourceGraphic"/>
    </filter>
    <linearGradient id="linear-gradient-3" x1="0.349" y1="-0.049" x2="1.136" y2="1.424" gradientUnits="objectBoundingBox">
      <stop offset="0" stop-color="#b5c543"/>
      <stop offset="1" stop-color="#fff"/>
    </linearGradient>
    <filter id="Path_54070" x="408.395" y="259.613" width="160.014" height="167.721" filterUnits="userSpaceOnUse">
      <feOffset dy="3" input="SourceAlpha"/>
      <feGaussianBlur stdDeviation="3" result="blur-4"/>
      <feFlood flood-opacity="0.161"/>
      <feComposite operator="in" in2="blur-4"/>
      <feComposite in="SourceGraphic"/>
    </filter>
    <linearGradient id="linear-gradient-4" x1="0.356" y1="-0.099" x2="0.996" y2="1.315" gradientUnits="objectBoundingBox">
      <stop offset="0" stop-color="#e8d246"/>
      <stop offset="1" stop-color="#fff"/>
    </linearGradient>
    <filter id="Path_54073" x="126.632" y="-1.883" width="168.15" height="159.955" filterUnits="userSpaceOnUse">
      <feOffset dy="3" input="SourceAlpha"/>
      <feGaussianBlur stdDeviation="3" result="blur-5"/>
      <feFlood flood-opacity="0.161"/>
      <feComposite operator="in" in2="blur-5"/>
      <feComposite in="SourceGraphic"/>
    </filter>
    <linearGradient id="linear-gradient-5" x1="-0.037" y1="0.265" x2="0.985" y2="1.203" gradientUnits="objectBoundingBox">
      <stop offset="0" stop-color="#6599ff"/>
      <stop offset="1" stop-color="#fff"/>
    </linearGradient>
    <filter id="Path_54076" x="29.101" y="76.809" width="159.777" height="168.439" filterUnits="userSpaceOnUse">
      <feOffset dy="3" input="SourceAlpha"/>
      <feGaussianBlur stdDeviation="3" result="blur-6"/>
      <feFlood flood-opacity="0.161"/>
      <feComposite operator="in" in2="blur-6"/>
      <feComposite in="SourceGraphic"/>
    </filter>
    <linearGradient id="linear-gradient-6" x1="-0.153" y1="0.076" x2="1.36" y2="0.91" gradientUnits="objectBoundingBox">
      <stop offset="0" stop-color="#ca9aef"/>
      <stop offset="1" stop-color="#fff"/>
    </linearGradient>
    <filter id="Path_54079" x="29.129" y="254.613" width="160.013" height="167.721" filterUnits="userSpaceOnUse">
      <feOffset dy="3" input="SourceAlpha"/>
      <feGaussianBlur stdDeviation="3" result="blur-7"/>
      <feFlood flood-opacity="0.161"/>
      <feComposite operator="in" in2="blur-7"/>
      <feComposite in="SourceGraphic"/>
    </filter>
    <clipPath id="clip-Student-Lifecycle-mgmt1_1">
      <rect width="600" height="425"/>
    </clipPath>
  </defs>
  <g id="Student-Lifecycle-mgmt1_1" data-name="Student-Lifecycle-mgmt1 – 1" clip-path="url(#clip-Student-Lifecycle-mgmt1_1)">
    <g id="Group_16059" data-name="Group 16059" transform="translate(-3.898)">
      <path id="Path_16726" data-name="Path 16726" d="M21.065,59.169C.7,86.285-3.289,116.187,2.3,143.636c7.714,37.9,34.105,70.814,60.423,83.683q1.22.595,2.472,1.182c66.822,31.242,72.233,169.983,147.3,181.93,74.613,11.874,69.848-81.792,141.992-82.479,59.323-.565,76.073-85.049,26.756-157.852C330.728,95.519,365.694,14.2,280.733,1.835,216.66-7.493,223.383,20.669,84.866,42.983c-22.783,3.67-49.921-2.292-63.8,16.186" transform="matrix(-0.669, 0.743, -0.743, -0.669, 573.17, 187.811)" fill="#ebd8d0"/>
      <g id="Group_15239" data-name="Group 15239" transform="translate(41.999 4.115)">
        <g id="BACKGROUND" transform="translate(167.001 332.166)">
          <g id="Group_14041" data-name="Group 14041">
            <g id="Group_14039" data-name="Group 14039">
              <g id="Student_Lifecycle_Management-2" data-name="Student Lifecycle Management" style="isolation: isolate">
                <g transform="matrix(1, 0, 0, 1, -205.1, -336.28)" filter="url(#Student_Lifecycle_Management)" style="isolation: isolate">
                  <text id="Student_Lifecycle_Management-3" data-name="Student Lifecycle Management" transform="translate(296.1 358.28)" fill="#343434" font-size="25" font-family="ArialMT, Arial"><tspan x="-95.197" y="0">Student Lifecycle</tspan><tspan x="-76.434" y="30" xml:space="preserve"> Management</tspan></text>
                </g>
              </g>
            </g>
          </g>
        </g>
        <g id="OBJECTS" transform="translate(0 0.001)">
          <g id="Group_15204" data-name="Group 15204" transform="translate(285.001)">
            <g id="Group_15202" data-name="Group 15202">
              <path id="Path_54064" data-name="Path 54064" d="M407.651,213.824l14.843-11.464a119.355,119.355,0,0,1,24.168,16.388l79.708-79.706a231.03,231.03,0,0,0-150.149-62.25V189.518a119.165,119.165,0,0,1,28.911,5.619Z" transform="translate(-376.221 -76.792)" fill="#b6b9c0" style="mix-blend-mode: multiply;isolation: isolate"/>
            </g>
            <g transform="matrix(1, 0, 0, 1, -323.1, -4.12)" filter="url(#Path_54065)">
              <path id="Path_54065-2" data-name="Path 54065" d="M526.37,139.042a231.03,231.03,0,0,0-150.149-62.25V189.518a119.165,119.165,0,0,1,28.911,5.619l2.519,18.688,14.843-11.464a119.355,119.355,0,0,1,24.168,16.388Z" transform="translate(-53.12 -72.68)" fill="url(#linear-gradient)"/>
            </g>
            <g id="Group_15203" data-name="Group 15203">
              <path id="Path_54066" data-name="Path 54066" d="M378.311,77.838a231.189,231.189,0,0,1,94.076,23.529,231.151,231.151,0,0,0-96.165-24.575V189.518c.7.048,1.394.115,2.09.175Z" transform="translate(-376.221 -76.792)" fill="#fff"/>
            </g>
          </g>
          <g id="Group_16057" data-name="Group 16057" transform="translate(-41.265 5)">
            <g id="Group_15201" data-name="Group 15201" transform="translate(423.559 78.691)">
              <g id="Group_15200" data-name="Group 15200">
                <path id="Path_54062" data-name="Path 54062" d="M462.128,243.259,450.2,258.943l19.4,2.472a119.172,119.172,0,0,1,5.363,28.536H587.665A231.03,231.03,0,0,0,525.6,139.511l-79.716,79.715A119.3,119.3,0,0,1,462.128,243.259Z" transform="translate(-445.888 -139.511)" fill="#b6b9c0" style="mix-blend-mode: multiply;isolation: isolate"/>
              </g>
              <g transform="matrix(1, 0, 0, 1, -420.39, -87.81)" filter="url(#Path_54063)">
                <path id="Path_54063-2" data-name="Path 54063" d="M587.665,289.951A231.03,231.03,0,0,0,525.6,139.511l-79.716,79.715a119.3,119.3,0,0,1,16.24,24.033L450.2,258.943l19.4,2.472a119.172,119.172,0,0,1,5.363,28.536Z" transform="translate(-25.49 -51.7)" fill="url(#linear-gradient-2)"/>
              </g>
            </g>
            <g id="Group_15205" data-name="Group 15205" transform="translate(423.559 78.691)">
              <path id="Path_54067" data-name="Path 54067" d="M452.828,259.278,464.219,244.3a119.341,119.341,0,0,0-16.24-24.033l79.12-79.12c-.5-.546-.99-1.1-1.495-1.641l-79.716,79.715a119.3,119.3,0,0,1,16.24,24.033L450.2,258.943Z" transform="translate(-445.888 -139.511)" fill="#fff"/>
              <path id="Path_54068" data-name="Path 54068" d="M468.1,244.088l-1.846-.235a119.118,119.118,0,0,1,5.119,27.727h2.008A119.17,119.17,0,0,0,468.1,244.088Z" transform="translate(-442.302 -121.14)" fill="#fff"/>
            </g>
          </g>
          <g id="Group_15207" data-name="Group 15207" transform="translate(379.294 261.498)">
            <g id="Group_15206" data-name="Group 15206">
              <path id="Path_54069" data-name="Path 54069" d="M469.471,309.278l-19.626,2.5,12,15.778a119.331,119.331,0,0,1-16.185,23.723l79.705,79.705a231.091,231.091,0,0,0,62.308-149.721H474.928A119.08,119.08,0,0,1,469.471,309.278Z" transform="translate(-445.663 -281.265)" fill="#b6b9c0" style="mix-blend-mode: multiply;isolation: isolate"/>
            </g>
            <g transform="matrix(1, 0, 0, 1, -417.39, -265.61)" filter="url(#Path_54070)">
              <path id="Path_54070-2" data-name="Path 54070" d="M474.928,281.265a119.08,119.08,0,0,1-5.457,28.013l-19.626,2.5,12,15.778a119.331,119.331,0,0,1-16.185,23.723l79.705,79.705a231.091,231.091,0,0,0,62.308-149.721Z" transform="translate(-28.27 -15.65)" fill="url(#linear-gradient-3)"/>
            </g>
            <path id="Path_54071" data-name="Path 54071" d="M447.754,352.326A119.3,119.3,0,0,0,463.938,328.6l-12-15.777,19.626-2.5a119.018,119.018,0,0,0,5.458-28.013H587.626c.014-.349.038-.7.051-1.045H474.928a119.08,119.08,0,0,1-5.457,28.013l-19.626,2.5,12,15.778a119.331,119.331,0,0,1-16.185,23.723l79.705,79.705c.168-.18.332-.366.5-.546Z" transform="translate(-445.663 -281.265)" fill="#fff"/>
          </g>
          <g id="Group_15210" data-name="Group 15210" transform="translate(97.531)">
            <g id="Group_15208" data-name="Group 15208">
              <path id="Path_54072" data-name="Path 54072" d="M338.932,202.36l14.844,11.464,2.519-18.688a119.155,119.155,0,0,1,28.911-5.619V76.792a231.035,231.035,0,0,0-150.15,62.25l79.709,79.706A119.347,119.347,0,0,1,338.932,202.36Z" transform="translate(-235.056 -76.792)" fill="#b6b9c0" style="mix-blend-mode: multiply;isolation: isolate"/>
            </g>
            <g transform="matrix(1, 0, 0, 1, -135.63, -4.12)" filter="url(#Path_54073)">
              <path id="Path_54073-2" data-name="Path 54073" d="M235.056,139.042a231.035,231.035,0,0,1,150.15-62.25V189.518a119.155,119.155,0,0,0-28.911,5.619l-2.519,18.688L338.932,202.36a119.347,119.347,0,0,0-24.167,16.388Z" transform="translate(-99.42 -72.68)" fill="url(#linear-gradient-4)"/>
            </g>
            <g id="Group_15209" data-name="Group 15209">
              <path id="Path_54074" data-name="Path 54074" d="M237.147,140.087A231.023,231.023,0,0,1,385.206,77.933V76.792a231.035,231.035,0,0,0-150.15,62.25l79.709,79.706c.186-.162.379-.318.566-.48Z" transform="translate(-235.056 -76.792)" fill="#fff"/>
            </g>
          </g>
          <g id="Group_15212" data-name="Group 15212" transform="translate(0 78.692)">
            <g id="Group_15211" data-name="Group 15211">
              <path id="Path_54075" data-name="Path 54075" d="M290.578,261.415l19.4-2.472-11.931-15.684a119.3,119.3,0,0,1,16.24-24.033L234.57,139.511a231.029,231.029,0,0,0-62.061,150.44H285.215A119.174,119.174,0,0,1,290.578,261.415Z" transform="translate(-172.509 -139.511)" fill="#b6b9c0" style="mix-blend-mode: multiply;isolation: isolate"/>
            </g>
            <g transform="matrix(1, 0, 0, 1, -38.1, -82.81)" filter="url(#Path_54076)">
              <path id="Path_54076-2" data-name="Path 54076" d="M172.509,289.951a231.029,231.029,0,0,1,62.061-150.44l79.716,79.715a119.3,119.3,0,0,0-16.24,24.033l11.931,15.684-19.4,2.472a119.174,119.174,0,0,0-5.363,28.536Z" transform="translate(-134.41 -56.7)" fill="url(#linear-gradient-5)"/>
            </g>
            <path id="Path_54077" data-name="Path 54077" d="M236.162,141.1l-1.592-1.592a231.029,231.029,0,0,0-62.061,150.44h2.136A231,231,0,0,1,236.162,141.1Z" transform="translate(-172.509 -139.511)" fill="#fff"/>
          </g>
          <g id="Group_15215" data-name="Group 15215" transform="translate(0.028 256.498)">
            <g id="Group_15213" data-name="Group 15213">
              <path id="Path_54078" data-name="Path 54078" d="M298.361,327.557l12-15.778-19.626-2.5a119.018,119.018,0,0,1-5.457-28.013H172.533a231.091,231.091,0,0,0,62.308,149.721l79.705-79.705A119.332,119.332,0,0,1,298.361,327.557Z" transform="translate(-172.533 -281.265)" fill="#b6b9c0" style="mix-blend-mode: multiply;isolation: isolate"/>
            </g>
            <g transform="matrix(1, 0, 0, 1, -38.13, -260.61)" filter="url(#Path_54079)">
              <path id="Path_54079-2" data-name="Path 54079" d="M285.281,281.265a119.018,119.018,0,0,0,5.457,28.013l19.626,2.5-12,15.778a119.332,119.332,0,0,0,16.185,23.723l-79.705,79.705a231.091,231.091,0,0,1-62.308-149.721Z" transform="translate(-134.4 -20.65)" fill="url(#linear-gradient-6)"/>
            </g>
            <g id="Group_15214" data-name="Group 15214">
              <path id="Path_54080" data-name="Path 54080" d="M174.624,282.31H285.372c-.028-.349-.066-.7-.091-1.045H172.533a231.091,231.091,0,0,0,62.308,149.721l.593-.593A231.055,231.055,0,0,1,174.624,282.31Z" transform="translate(-172.533 -281.265)" fill="#fff"/>
            </g>
          </g>
          <g id="Group_15219" data-name="Group 15219" transform="translate(310.849 27.65)">
            <text id="Orientation" transform="translate(0.445 64.303)" fill="#2d374a" font-size="11" font-family="Arial-BoldMT, Arial" font-weight="700" letter-spacing="-0.025em"><tspan x="0" y="0">ORIENTATION</tspan></text>
            <g id="Group_14063" data-name="Group 14063" transform="translate(13.445 0)">
              <path id="Path_34268" data-name="Path 34268" d="M550.693,311.77l-4.765-8.264c1.776-1.027,3.524-2.054,5.3-3.039a1.238,1.238,0,0,1,.8.036q6.529,1.731,13.05,3.49a2.109,2.109,0,0,1,1.724,2.6,2.087,2.087,0,0,1-2.8,1.513c-2.18-.561-4.346-1.179-6.532-1.718a3.031,3.031,0,0,0-1.135.192c.3.249.566.63.91.726,3.291.92,6.587,1.827,9.9,2.646a2.832,2.832,0,0,0,1.886-.253c3.653-2.041,7.265-4.153,10.88-6.261a1.855,1.855,0,0,1,2.443.073,3.449,3.449,0,0,1,.78,2.1,2.027,2.027,0,0,1-.971,1.4c-4.187,2.484-8.4,4.933-12.647,7.3a3.108,3.108,0,0,1-2.076.125c-4.092-1.037-8.165-2.149-12.239-3.256C553.647,310.768,552.094,310.038,550.693,311.77Z" transform="translate(-538.909 -270.259)" fill="#2d374a"/>
              <path id="Path_34269" data-name="Path 34269" d="M601.958,216.654c0-2.268-.015-4.439.021-6.609,0-.238.279-.5.475-.7.163-.17.493-.227.581-.413.72-1.523,2.085-1.154,3.319-1.174a1.679,1.679,0,0,1,1.955,1.386c.047.22.395.376.6.562.109-.268.324-.542.309-.8a2.458,2.458,0,0,0-2.42-2.114c-.763-.043-1.532.015-2.3-.017-.843-.035-1.549-.022-1.852,1.043a1.484,1.484,0,0,1-1.248.682,1.739,1.739,0,0,1-1.264-.876,1.137,1.137,0,0,0-1.354-.85c-.764.033-1.531,0-2.3.01-1.915.029-2.863.984-2.9,2.926-.019,1.088-.012,2.176-.023,3.264a.6.6,0,0,1-.087.208c-2.511-1.531-3.936-6.525-2.962-10.375a11.253,11.253,0,0,1,21.518-1.137c1.5,4.122.293,9.431-2.632,11.616a.838.838,0,0,1-.124-.171c-.169-.427-.331-.856-.5-1.285-.165.436-.513.9-.458,1.3a1.961,1.961,0,0,1-1.293,2.164A9.962,9.962,0,0,1,601.958,216.654Zm4.378-15.291a4.887,4.887,0,1,0-4.863,4.934A4.852,4.852,0,0,0,606.336,201.363Z" transform="translate(-572.483 -189.749)" fill="#2d374a"/>
              <path id="Path_34270" data-name="Path 34270" d="M518.837,310.758c.8,1.374,1.576,2.773,2.426,4.127.179.284.626.4.95.592a3,3,0,0,0-.133-1.045c-.743-1.377-1.544-2.721-2.319-4.067,1.49-1.567,2.254-1.488,3.295.316q2.409,4.174,4.809,8.353c.833,1.453.732,1.8-.74,2.664-.867.507-1.743,1-2.605,1.511a1.188,1.188,0,0,1-1.836-.469c-1.857-3.194-3.717-6.387-5.523-9.61C516.569,312.073,516.921,311.624,518.837,310.758Z" transform="translate(-516.9 -276.963)" fill="#2d374a"/>
              <path id="Path_34271" data-name="Path 34271" d="M614.6,259.1a10.218,10.218,0,0,1-5.983-2.017,1.294,1.294,0,0,1-.4-.913q-.063-2.106-.009-4.215c.032-1.238.557-1.742,1.777-1.8.481-.022.967.03,1.445-.014.774-.072,1.191.434,1.788.788,1.755,1.04,1.362,2.573,1.382,4.059C614.617,256.3,614.6,257.623,614.6,259.1Z" transform="translate(-586.11 -232.138)" fill="#2d374a"/>
              <path id="Path_34272" data-name="Path 34272" d="M573.195,196.751l1.1-.577a3.8,3.8,0,0,1-.014,1.188c-.558,1.615-1.65,1.874-3.009.746a1.616,1.616,0,0,1-.275-.488l.981-.408a39.079,39.079,0,0,1-.725-5.873c.145-6.562,3.245-11.428,9.221-14.121s11.633-1.69,16.7,2.46a4.968,4.968,0,0,1,.829,1.314,5.153,5.153,0,0,1-1.463-.617,14.742,14.742,0,0,0-18.235-.843A14.588,14.588,0,0,0,573.195,196.751Z" transform="translate(-557.919 -175.717)" fill="#2d374a"/>
              <path id="Path_34273" data-name="Path 34273" d="M615.76,213.255l-1.11.587a4.119,4.119,0,0,1,.07-1.287,1.7,1.7,0,0,1,3.075-.477.849.849,0,0,1,.122.507,11.4,11.4,0,0,1-1.125.354c.106.4.252.955.4,1.512a15.655,15.655,0,0,1-25.353,15.882,5.379,5.379,0,0,1-.847-1.463,6.77,6.77,0,0,1,1.441.732,14.706,14.706,0,0,0,23.7-15.3C616.025,213.934,615.876,213.577,615.76,213.255Z" transform="translate(-573.077 -202.699)" fill="#2d374a"/>
              <path id="Path_34274" data-name="Path 34274" d="M631.806,314.436c3.47-2.01,6.925-4.048,10.427-6a6.119,6.119,0,0,1,1.984-.336l.11.4c-.675.4-1.346.814-2.027,1.209-2.778,1.611-5.541,3.249-8.354,4.8a7.044,7.044,0,0,1-2.026.42Z" transform="translate(-604.02 -276.086)" fill="#2d374a"/>
              <path id="Path_34275" data-name="Path 34275" d="M626.756,220.072a6.915,6.915,0,0,0,1.317,1.032c1.091.5.831,1.181.391,1.928a3.958,3.958,0,0,1-4.143,1.833,3.6,3.6,0,0,1-2.915-2.8l5.423-1.686Z" transform="translate(-596.135 -209.346)" fill="#2d374a"/>
              <path id="Path_34276" data-name="Path 34276" d="M628.875,211.222c-.819-.639-1.437-1.493-2.11-1.539-.629-.043-1.266.915-1.992,1.173a27.927,27.927,0,0,1-3.352.774,3.566,3.566,0,0,1,3.146-3.734A3.763,3.763,0,0,1,628.875,211.222Z" transform="translate(-596.145 -200.09)" fill="#2d374a"/>
            </g>
          </g>
          <g id="Group_15227" data-name="Group 15227" transform="translate(30.699 275.049)">
            <text id="Registration" transform="translate(0 65.921)" fill="#2d374a" font-size="11" font-family="Arial-BoldMT, Arial" font-weight="700" letter-spacing="-0.025em"><tspan x="0" y="0">REGISTRATION</tspan></text>
            <g id="Group_14062" data-name="Group 14062" transform="translate(21)">
              <path id="Path_34252" data-name="Path 34252" d="M503.343,155.348c3.909,3.7,7.792,7.438,11.742,11.1,1.364,1.264,1.672,1.972-.359,3.118-.038-.448-.074-.874-.119-1.4-2.924,0-5.814,0-8.7,0-2.612,0-3.3-.683-3.3-3.273,0-2.612,0-5.225,0-7.99-.432-.022-.814-.059-1.2-.059q-7.3-.006-14.6,0c-1.466,0-1.572.111-1.572,1.581q0,21.054,0,42.108c0,1.537.081,1.618,1.656,1.619q13.093,0,26.185,0c1.486,0,1.6-.11,1.6-1.566,0-4.022.05-8.044-.028-12.065a3.121,3.121,0,0,1,1.448-2.964c.024.439.062.808.062,1.178,0,4.585-.044,9.17.031,13.754a3.3,3.3,0,0,1-1.494,3.153h-29.46a3.183,3.183,0,0,1-1.514-3.019q.061-21.125,0-42.25a3.183,3.183,0,0,1,1.514-3.02Z" transform="translate(-483.718 -155.348)" fill="#2d374a"/>
              <path id="Path_34254" data-name="Path 34254" d="M556.138,213.92a6.005,6.005,0,0,1,1.462.567,40.482,40.482,0,0,1,3.275,2.846c.925.924.78,2.139-.267,3.339q-4.247,4.863-8.512,9.711c-2.971,3.387-5.927,6.788-8.926,10.15a4.869,4.869,0,0,1-1.631,1.161c-1.837.81-3.7,1.555-5.579,2.272a5.153,5.153,0,0,1-1.364.135c-.038-.452-.077-.9-.112-1.356,0-.037.031-.075.037-.114.642-4.705,2.894-8.468,6.173-11.907,4.715-4.945,9.052-10.25,13.585-15.37A11.788,11.788,0,0,1,556.138,213.92Zm-1.445,3.245,4.036,3.361c.4-.828,1.916-1.166.825-2.366a14.822,14.822,0,0,0-2.55-2.178,1.608,1.608,0,0,0-1.319.089C555.323,216.244,555.1,216.7,554.693,217.165Zm-18.5,25.1,4.716-1.929-3.443-2.88Z" transform="translate(-522.227 -199.778)" fill="#2d374a"/>
              <path id="Path_34255" data-name="Path 34255" d="M526.232,239.721a2.4,2.4,0,0,1-2.478,1.5c-5.351-.063-10.7-.026-16.055-.03a3.669,3.669,0,0,1-1.191-.089.925.925,0,0,1-.527-.671c0-.235.276-.532.508-.694a1.341,1.341,0,0,1,.7-.087q9.235,0,18.47,0A5.351,5.351,0,0,1,526.232,239.721Z" transform="translate(-500.606 -219.29)" fill="#2d374a"/>
              <path id="Path_34256" data-name="Path 34256" d="M516.658,180.314a2.956,2.956,0,0,1,2.947-3.016,3,3,0,0,1,3.06,3.043,3.061,3.061,0,0,1-3.028,2.98A3.016,3.016,0,0,1,516.658,180.314Z" transform="translate(-508.705 -171.998)" fill="#2d374a"/>
              <path id="Path_34257" data-name="Path 34257" d="M523.481,252.283a2.232,2.232,0,0,1-2.338,1.507c-4.533-.064-9.067-.027-13.6-.027-.241,0-.527.082-.713-.019a7.55,7.55,0,0,1-.99-.753c.307-.236.613-.676.922-.678C512.292,252.271,517.823,252.283,523.481,252.283Z" transform="translate(-500.498 -228.877)" fill="#2d374a"/>
              <path id="Path_34258" data-name="Path 34258" d="M520.979,264.673a2.363,2.363,0,0,1-2.463,1.567c-3.608-.077-7.218-.027-10.828-.03a2.821,2.821,0,0,1-1.068-.066c-.27-.118-.608-.479-.6-.724s.4-.487.633-.717c.045-.044.154-.03.234-.03Z" transform="translate(-500.634 -238.277)" fill="#2d374a"/>
              <path id="Path_34259" data-name="Path 34259" d="M518.242,277.276a2.226,2.226,0,0,1-2.309,1.511c-2.926-.084-5.856-.025-8.784-.031-.55,0-1.237.109-1.249-.727s.667-.751,1.225-.751C510.774,277.274,514.423,277.276,518.242,277.276Z" transform="translate(-500.544 -247.837)" fill="#2d374a"/>
              <path id="Path_34260" data-name="Path 34260" d="M515.527,289.622a2.308,2.308,0,0,1-2.452,1.572c-2-.093-4.01.018-6.012-.062-.426-.017-.834-.485-1.251-.746.422-.255.838-.72,1.266-.73C509.835,289.589,512.6,289.622,515.527,289.622Z" transform="translate(-500.478 -257.196)" fill="#2d374a"/>
              <path id="Path_34261" data-name="Path 34261" d="M541.121,200.666l1-1.162a4.1,4.1,0,0,1,2.112,3.643,16.472,16.472,0,0,1-.03,2.529c-.064.444-.482.836-.74,1.251a5.858,5.858,0,0,1-.682-1.31,5.581,5.581,0,0,1-.023-1.562C542.831,202.652,542.6,201.39,541.121,200.666Z" transform="translate(-527.261 -188.843)" fill="#2d374a"/>
              <path id="Path_34262" data-name="Path 34262" d="M506.049,199.6l1.021,1.108c-2,1.013-1.569,2.853-1.643,4.552-.028.638.384,1.708-.734,1.692-1.075-.015-.7-1.063-.734-1.72a16.368,16.368,0,0,1,.016-2.409A4.068,4.068,0,0,1,506.049,199.6Z" transform="translate(-499.044 -188.913)" fill="#2d374a"/>
              <path id="Path_34263" data-name="Path 34263" d="M512.152,314.621c.168,1.2-.255,1.635-1.377,1.563-1.279-.082-2.572.041-3.849-.058-.384-.03-.734-.5-1.1-.773.351-.244.694-.684,1.054-.7C508.636,314.581,510.4,314.621,512.152,314.621Z" transform="translate(-500.489 -276.157)" fill="#2d374a"/>
              <path id="Path_34264" data-name="Path 34264" d="M513.15,302.279l-.395,1.467c-2.051,0-4.123.026-6.193-.034-.248-.007-.482-.485-.723-.744.271-.23.538-.651.815-.659C508.771,302.254,510.89,302.279,513.15,302.279Z" transform="translate(-500.498 -266.799)" fill="#2d374a"/>
              <path id="Path_34265" data-name="Path 34265" d="M582.418,316.055c.591-1.193,1.319-1.8,2.459-1.493.326.088.562.513.839.784-.272.236-.523.639-.82.677A20.68,20.68,0,0,1,582.418,316.055Z" transform="translate(-558.587 -276.06)" fill="#2d374a"/>
            </g>
          </g>
          <g id="Group_15233" data-name="Group 15233" transform="translate(32.699 136.871)">
            <text id="PROSPECTIVE_STUDENT" data-name="PROSPECTIVE
STUDENT" transform="translate(38 48.481)" fill="#2d374a" font-size="11" font-family="Arial-BoldMT, Arial" font-weight="700" letter-spacing="-0.025em"><tspan x="-37.745" y="0">PROSPECTIVE</tspan><tspan x="-25.147" y="13">STUDENT</tspan></text>
            <g id="Group_15242" data-name="Group 15242" transform="translate(12 0)">
              <path id="Path_54105" data-name="Path 54105" d="M159.856,1232.233c-2.769,0-5.538-.046-8.3.019-1.237.029-1.923-.375-1.783-1.658.535-4.889-.913-9.174-3.366-13.391-2.62-4.5-3.327-9.594-3.066-14.8.054-1.076-.221-2.4,1.322-2.558,1.517-.159,1.526,1.15,1.858,2.2,1,3.155,2.091,6.278,3.169,9.407a5.476,5.476,0,0,0,.592,1.048c1.561,2.509,3.381,4.339,6.786,3.847a27.444,27.444,0,0,1,6.9.014,4.941,4.941,0,0,1,3.121,1.67c2.8,3.743,3.636,8.1,3.327,12.708-.081,1.208-.873,1.493-1.907,1.49C165.623,1232.231,162.74,1232.235,159.856,1232.233Z" transform="translate(-131.847 -1199.836)"/>
              <path id="Path_54106" data-name="Path 54106" d="M118.829,1255.636c-2.252,0-4.5-.03-6.756.013-1.268.024-1.76-.581-1.793-1.777a11.259,11.259,0,0,1,2.449-7.549,6.084,6.084,0,0,1,2.015-1.16,1.146,1.146,0,0,1,.514-.024q3.6.1,7.2.2c1.395,2.7,2.89,5.345,4.146,8.1.729,1.6.2,2.185-1.542,2.188C122.986,1255.638,120.908,1255.635,118.829,1255.636Z" transform="translate(-110.275 -1229.43)"/>
              <path id="Path_54107" data-name="Path 54107" d="M223.593,1255.586c-1.5,0-3.345.531-4.4-.155-.979-.639-1.061-2.6-1.631-3.932-.63-1.475-1.341-2.918-2.065-4.351-.656-1.3-.453-1.857,1.026-2.01,1.254-.13,2.533-.017,3.8-.021.922,0,1.845-.032,2.767-.028,3.358.016,4.212.5,5.379,3.686a25.054,25.054,0,0,1,1,4.856c.21,1.386-.488,2.024-1.9,1.974-1.325-.047-2.653-.01-3.979-.01Z" transform="translate(-178.807 -1229.4)"/>
              <path id="Path_54108" data-name="Path 54108" d="M176.436,1208.888a5.976,5.976,0,1,1-.075,11.95,5.975,5.975,0,1,1,.075-11.95Z" transform="translate(-149.55 -1205.751)"/>
              <path id="Path_54109" data-name="Path 54109" d="M223.392,1218.046a4.137,4.137,0,0,1,4.381,4.267,4.552,4.552,0,0,1-4.553,4.454,4.412,4.412,0,0,1-4.332-4.435A4.132,4.132,0,0,1,223.392,1218.046Z" transform="translate(-181.252 -1211.736)"/>
              <path id="Path_54110" data-name="Path 54110" d="M126.951,1217.99c.971-.157,1.46.179,1.576,1.455.159,1.756.759,3.469,1,5.223a1.9,1.9,0,0,1-.709,1.559,4.769,4.769,0,0,1-4.875-.617,4.972,4.972,0,0,1-1.024-5.1C123.626,1218.736,124.749,1218.006,126.951,1217.99Z" transform="translate(-118.344 -1211.676)"/>
            </g>
          </g>
          <g id="Group_16058" data-name="Group 16058" transform="translate(-40.452 3.742)">
            <g id="Group_14057" data-name="Group 14057" transform="translate(463.746 187.643)">
              <g id="Group_14019" data-name="Group 14019" transform="translate(0 0)">
                <text id="Programme" transform="translate(37 10)" fill="#2d374a" font-size="11" font-family="Arial-BoldMT, Arial" font-weight="700"><tspan x="-36.972" y="0">PROGRAMME</tspan></text>
              </g>
            </g>
            <g id="noun_programmation_2529066" transform="translate(476.746 148.301)">
              <g id="Group_15243" data-name="Group 15243" transform="translate(0 0)">
                <path id="Path_34266" data-name="Path 34266" d="M92.385,67.323a5.625,5.625,0,0,1-2.028,1.29h.957a4.255,4.255,0,0,1,4.126,4.059v4.364a.7.7,0,0,1-.7.7h-1.4v-1.4a.7.7,0,1,0-1.4,0v1.4H84.913v-1.4a.7.7,0,1,0-1.4,0v1.4h-1.4a.7.7,0,0,1-.7-.7V72.672a4.254,4.254,0,0,1,4.126-4.059h.957a5.626,5.626,0,0,1-2.028-1.29A5.654,5.654,0,0,0,80,72.672v4.364a2.108,2.108,0,0,0,2.106,2.106H94.739a2.108,2.108,0,0,0,2.106-2.106V72.672A5.654,5.654,0,0,0,92.385,67.323Z" transform="translate(-51.926 -50.366)" fill="#2d374a"/>
                <ellipse id="Ellipse_1053" data-name="Ellipse 1053" cx="3.969" cy="3.969" rx="3.969" ry="3.969" transform="translate(32.636 8.819)" fill="#2d374a"/>
                <path id="Path_34267" data-name="Path 34267" d="M42.813,19H2.106A2.1,2.1,0,0,0,0,21.081V45.688a2.1,2.1,0,0,0,2.113,2.088H18.95v1.4H15.792a.7.7,0,0,0,0,1.4H29.127a.7.7,0,0,0,0-1.4H25.969v-1.4h1.41a3.515,3.515,0,0,1-.2-.3l-.021-.034q-.08-.135-.147-.278c-.011-.024-.024-.047-.035-.072-.038-.085-.071-.172-.1-.261-.012-.033-.025-.064-.036-.1a3.472,3.472,0,0,1-.093-.351l0-.011h0a3.511,3.511,0,0,1-.071-.7V41.307a6.987,6.987,0,0,1,4.942-6.563,5.615,5.615,0,1,1,9.768,0,7.112,7.112,0,0,1,3.538,2.48V21.081A2.1,2.1,0,0,0,42.813,19ZM2.807,25.317a.7.7,0,0,1,.7-.7h8.071a.7.7,0,1,1,0,1.4H3.509A.7.7,0,0,1,2.807,25.317ZM17.2,27.422a.7.7,0,1,1,0,1.4H7.369a.7.7,0,1,1,0-1.4Zm-8.4,13.441a.7.7,0,0,1-.372,1.3.721.721,0,0,1-.372-.105L5.243,40.3a.7.7,0,0,1,0-1.193L8.05,37.353a.7.7,0,0,1,.744,1.193L6.938,39.7ZM12.967,36.7l-1.4,6.317a.7.7,0,0,1-.684.551.738.738,0,0,1-.151-.018.7.7,0,0,1-.533-.835L11.6,36.4a.7.7,0,1,1,1.369.3Zm4.952,3.6-2.807,1.755a.721.721,0,0,1-.372.105.7.7,0,0,1-.372-1.3L16.223,39.7l-1.856-1.158a.7.7,0,1,1,.744-1.193l2.807,1.755a.7.7,0,0,1,0,1.193Zm6.647,8.878H20.354v-1.4h4.211Zm.7-11.932H21.758a.7.7,0,1,1,0-1.4h3.509a.7.7,0,1,1,0,1.4Zm0-2.807H17.9a.7.7,0,1,1,0-1.4h7.369a.7.7,0,1,1,0,1.4Zm0-2.807H12.984a.7.7,0,1,1,0-1.4H25.267a.7.7,0,1,1,0,1.4Zm18.248-9.826H1.4v-.726a.692.692,0,0,1,.7-.677H42.813a.692.692,0,0,1,.7.677Z" transform="translate(0 -19)" fill="#2d374a"/>
              </g>
            </g>
          </g>
        </g>
      </g>
      <g id="Group_15957" data-name="Group 15957" transform="translate(3 -4)">
        <g id="Group_15238" data-name="Group 15238" transform="translate(207 85.326)">
          <text id="Accepted_Students" data-name="AcceptedStudents" transform="translate(26 10)" fill="#2d374a" font-size="11" font-family="Arial-BoldMT, Arial" font-weight="700" letter-spacing="-0.025em"><tspan x="-29.29" y="0">ACCEPTED</tspan><tspan x="-28.678" y="13">STUDENTS</tspan></text>
        </g>
        <g id="noun_student_675885_1_" data-name="noun_student_675885 (1)" transform="translate(216 34.861)">
          <g id="Group_15244" data-name="Group 15244" transform="translate(0 0)">
            <path id="Path_54111" data-name="Path 54111" d="M28.851,10.374l.726.314-.062.487a.589.589,0,0,0-.082,1.141l-.44,6.168a2.824,2.824,0,0,0,.115.913l.357,1.072c.082.245.215.245.3,0L30.12,19.4a2.808,2.808,0,0,0,.115-.913l-.44-6.168a.589.589,0,0,0-.084-1.141l-.056-.454,1.675.726.821.355v3.1a7.888,7.888,0,0,0-.469,2.684c0,4.367,3.554,9,7.921,9s7.92-4.635,7.92-9a7.887,7.887,0,0,0-.467-2.679V11.8l.82-.355,2.479-1.073c.647-.282.647-.74,0-1.021L40.781,5.21a3.407,3.407,0,0,0-2.357,0L28.851,9.354C28.2,9.635,28.2,10.093,28.851,10.374Z" transform="translate(-23.148 -5)"/>
            <path id="Path_54112" data-name="Path 54112" d="M49.322,58.078a2.041,2.041,0,0,0,.247-.946,10.541,10.541,0,0,0-8.846-10.4,9.1,9.1,0,0,1-5.53,1.867h-.834a9.092,9.092,0,0,1-5.529-1.867,10.542,10.542,0,0,0-8.847,10.4,2.035,2.035,0,0,0,.247.946,3.292,3.292,0,0,0-1.909,2.986v2.121A3.3,3.3,0,0,0,21.2,66.453a3.27,3.27,0,0,0,3.191,3.153l9.735,2.057.653.138.654-.138,9.735-2.057a3.27,3.27,0,0,0,3.191-3.153,3.3,3.3,0,0,0,2.875-3.268V61.064A3.292,3.292,0,0,0,49.322,58.078ZM24.528,68.3h-.069A1.963,1.963,0,0,1,22.5,66.452a3.3,3.3,0,0,0,2.864-3.267V61.064A3.3,3.3,0,0,0,22.5,57.8V56.167a1.962,1.962,0,0,1,1.9-1.96l9.727,2.054V70.327Zm20.564,0h-.068l-9.595,2.027V56.261l9.727-2.054a1.963,1.963,0,0,1,1.9,1.96V57.8a3.3,3.3,0,0,0-2.869,3.268v2.121a3.3,3.3,0,0,0,2.863,3.267A1.962,1.962,0,0,1,45.092,68.3Z" transform="translate(-18.321 -25.054)"/>
          </g>
        </g>
      </g>
      <g id="Group_15896" data-name="Group 15896" transform="translate(454.745 283.74)">
        <g id="Group_15223" data-name="Group 15223" transform="translate(0 42.185)">
          <text id="ALUMNI_DEVELOPMENT" data-name="ALUMNI
DEVELOPMENT" transform="translate(40 10)" fill="#2d374a" font-size="11" font-family="Arial-BoldMT, Arial" font-weight="700" letter-spacing="-0.025em"><tspan x="-20.698" y="0">ALUMNI</tspan><tspan x="-40.49" y="13">DEVELOPMENT</tspan></text>
        </g>
        <g id="Group_14060" data-name="Group 14060" transform="translate(17)">
          <path id="Path_34243" data-name="Path 34243" d="M461.615,264.848H426.733a15.956,15.956,0,0,1,2.872-8.836,14.165,14.165,0,0,1,5.749-4.854,2.561,2.561,0,0,1,2.908.322c4.078,3.117,8.077,3.1,12.112-.084a2.624,2.624,0,0,1,3.655.088,20.223,20.223,0,0,1,7.334,11.617C461.471,263.635,461.52,264.18,461.615,264.848Z" transform="translate(-426.733 -231.125)" fill="#2d374a"/>
          <path id="Path_34244" data-name="Path 34244" d="M473.13,198.383a9.04,9.04,0,1,1-8.961-9.026A8.933,8.933,0,0,1,473.13,198.383Z" transform="translate(-446.579 -188.136)" fill="#2d374a"/>
          <path id="Path_34245" data-name="Path 34245" d="M517.476,238.555c1-2.357,1.576-2.677,3.7-2.031a6.747,6.747,0,0,0,5.2-.493,2.552,2.552,0,0,1,2.652.144c4.483,2.5,6.747,6.437,7.509,11.382.134.866-.248,1.169-1.073,1.166-2.538-.007-5.077.052-7.614,0a1.716,1.716,0,0,1-1.3-.708A20.132,20.132,0,0,0,517.476,238.555Z" transform="translate(-490.327 -220.63)" fill="#2d374a"/>
          <path id="Path_34246" data-name="Path 34246" d="M519.123,199.363c-.175-.017-.672-.042-1.161-.121-1.107-.178-1.589-.63-1.3-1.928a9.8,9.8,0,0,0-1.726-8.333c-.813-1.073-.628-1.692.4-2.405a7.074,7.074,0,0,1,8.352.128,7,7,0,0,1,2.427,7.856A7.108,7.108,0,0,1,519.123,199.363Z" transform="translate(-488.19 -185.275)" fill="#2d374a"/>
        </g>
      </g>
      <g id="noun_students_35784" transform="translate(-198.869 262.455)">
        <g id="Group_15959" data-name="Group 15959" transform="translate(461.103 -50.393)">
          <g id="Group_15958" data-name="Group 15958" transform="translate(12.213 0)">
            <path id="Path_54761" data-name="Path 54761" d="M58.516,41.332a.656.656,0,0,1-.93,0l-15.8-9.286-.526,6.723,13.7,6.124a4.879,4.879,0,0,0,6.189,0l12.805-5.61-.657-6.59Z" transform="translate(-31.415 -14.473)"/>
            <path id="Path_54762" data-name="Path 54762" d="M89.51,34.208,63.571,23.417a.781.781,0,0,0-1.1,0L36.527,34.208a.781.781,0,0,0,0,1.1l1.932,1.117-.121,1.708a1.405,1.405,0,0,0-.194,2.724L37.011,56.71,38.574,61.4l1.563-4.686L39,40.862a1.405,1.405,0,0,0-.194-2.724L38.7,36.567,41.4,38.134l.109.063L62.468,50.322a.781.781,0,0,0,1.1,0L83.468,38.809l1.168-.674,4.878-2.823A.782.782,0,0,0,89.51,34.208Z" transform="translate(-36.298 -23.188)"/>
          </g>
          <path id="Path_54763" data-name="Path 54763" d="M90.034,80.82c4.41.476,8.278,1.2,8.278,1.2-8.8-4.648-8.574-21.341-8.574-21.341C91.28,28.355,69.088,30.046,69.088,30.046l-.014.05-.02-.05S46.864,28.353,48.4,60.683c0,0,.226,16.693-8.574,21.341,0,0,2.365-.151,5.537-.21a24.687,24.687,0,0,0-15.225,22.565c0,13.65,11.5,11.234,25.7,11.234H82.306c14.2,0,25.705,2.416,25.705-11.234A24.85,24.85,0,0,0,90.034,80.82ZM75.015,87.3l-5.941,9.288L63.129,87.3c-4.323-.946-7.659-2.884-9-5.273,3.485.29,6.439.907,7.2,2.109l-3.271-7.023a15.078,15.078,0,0,0,21.819.2L77.59,81.889c.768-1.2,3.644-1.531,7.018-1.45C84.071,83.544,80.268,86.158,75.015,87.3ZM86.138,57.546a30.24,30.24,0,0,1-3.182,11.528C79.834,75.091,74.781,79,69.076,79c-8.7,0-15.89-9.09-17.019-20.869a71.22,71.22,0,0,0,10.97-2.652,69.915,69.915,0,0,0,16.507-8.673c.046-.032.093-.06.135-.093,0,0,.163.226.395.613.786,1.293,2.474,5.166-.712,6.937l5.808.71h.111l1.063.188A18.82,18.82,0,0,1,86.138,57.546Z" transform="translate(-30.141 -16.456)"/>
        </g>
        <g id="Group_15961" data-name="Group 15961" transform="translate(525.301 -82.6)">
          <g id="Group_15960" data-name="Group 15960" transform="translate(9.907 0)">
            <path id="Path_54764" data-name="Path 54764" d="M88.436,40.243a.533.533,0,0,1-.754,0L74.863,32.709l-.428,5.455L85.55,43.134a3.953,3.953,0,0,0,5.019,0l10.389-4.551-.534-5.346Z" transform="translate(-66.447 -18.45)"/>
            <path id="Path_54765" data-name="Path 54765" d="M113.58,34.464,92.534,25.707a.631.631,0,0,0-.895,0L70.594,34.464a.633.633,0,0,0,0,.9l1.567.907-.1,1.387a1.139,1.139,0,0,0-.159,2.208L70.987,52.72l1.268,3.8,1.27-3.8L72.6,39.863a1.139,1.139,0,0,0-.159-2.208l-.091-1.276,2.2,1.272.089.052,17,9.835a.631.631,0,0,0,.895,0L108.674,38.2l.948-.546,3.958-2.289A.636.636,0,0,0,113.58,34.464Z" transform="translate(-70.408 -25.521)"/>
          </g>
          <path id="Path_54766" data-name="Path 54766" d="M114.008,72.281c3.577.385,6.717.978,6.717.978-7.141-3.771-6.957-17.316-6.957-17.316,1.25-26.227-16.755-24.857-16.755-24.857L97,31.128l-.016-.042s-18-1.371-16.755,24.857c0,0,.184,13.545-6.955,17.316,0,0,1.918-.125,4.491-.173A20.031,20.031,0,0,0,65.414,91.394c0,11.075,9.332,9.115,20.849,9.115h21.472c11.52,0,20.855,1.96,20.855-9.115A20.163,20.163,0,0,0,114.008,72.281ZM101.82,77.542,97,85.076l-4.822-7.534c-3.509-.768-6.215-2.341-7.306-4.279C87.7,73.5,90.1,74,90.713,74.975l-2.656-5.7a12.233,12.233,0,0,0,17.7.167L103.9,73.15c.621-.978,2.956-1.244,5.693-1.176C109.167,74.491,106.083,76.611,101.82,77.542ZM110.844,53.4a24.556,24.556,0,0,1-2.581,9.351c-2.533,4.882-6.636,8.056-11.264,8.056-7.058,0-12.892-7.374-13.807-16.931a57.888,57.888,0,0,0,8.9-2.15,56.743,56.743,0,0,0,13.392-7.036c.04-.026.075-.048.111-.075,0,0,.133.183.321.5.637,1.049,2.008,4.192-.579,5.628l4.713.577h.089l.863.153A14.424,14.424,0,0,1,110.844,53.4Z" transform="translate(-65.414 -20.059)"/>
        </g>
        <g id="Group_15963" data-name="Group 15963" transform="translate(409.261 -84.12)">
          <g id="Group_15962" data-name="Group 15962" transform="translate(9.907 0)">
            <path id="Path_54767" data-name="Path 54767" d="M25.281,40.641a.533.533,0,0,1-.754,0L11.711,33.107l-.427,5.455L22.4,43.532a3.956,3.956,0,0,0,5.021,0l10.389-4.551-.534-5.346Z" transform="translate(-3.292 -18.848)"/>
            <path id="Path_54768" data-name="Path 54768" d="M50.429,34.862,29.383,26.105a.633.633,0,0,0-.9,0L7.441,34.862a.633.633,0,0,0,0,.9l1.569.909-.1,1.387a1.139,1.139,0,0,0-.159,2.208l-.92,12.857,1.268,3.8,1.268-3.8L9.449,40.261a1.139,1.139,0,0,0-.157-2.208L9.2,36.778l2.2,1.272.089.052,17,9.835a.631.631,0,0,0,.895,0L45.521,38.6l.948-.548,3.958-2.289A.634.634,0,0,0,50.429,34.862Z" transform="translate(-7.255 -25.919)"/>
          </g>
          <path id="Path_54769" data-name="Path 54769" d="M50.853,72.678c3.577.387,6.717.98,6.717.98-7.139-3.771-6.957-17.316-6.957-17.316,1.252-26.227-16.755-24.855-16.755-24.855l-.01.04-.016-.042s-18-1.373-16.755,24.855c0,0,.183,13.545-6.955,17.316,0,0,1.918-.125,4.491-.173A20.031,20.031,0,0,0,2.261,91.791c0,11.075,9.334,9.115,20.849,9.115H44.582c11.518,0,20.855,1.96,20.855-9.115A20.164,20.164,0,0,0,50.853,72.678ZM38.667,77.937l-4.821,7.534-4.822-7.534c-3.507-.766-6.215-2.339-7.306-4.277,2.829.234,5.225.736,5.842,1.712l-2.656-5.7a12.887,12.887,0,0,0,8.937,3.874A12.811,12.811,0,0,0,42.6,69.839l-1.851,3.708c.621-.978,2.956-1.244,5.693-1.178C46.014,74.89,42.928,77.008,38.667,77.937ZM47.691,53.8a24.556,24.556,0,0,1-2.581,9.351C42.577,68.03,38.476,71.2,33.848,71.2c-7.058,0-12.892-7.374-13.807-16.933a57.942,57.942,0,0,0,8.9-2.15,56.743,56.743,0,0,0,13.392-7.036c.038-.026.075-.048.111-.075,0,0,.131.183.319.5.637,1.049,2.008,4.192-.579,5.628l4.711.577h.089l.863.153A14.428,14.428,0,0,1,47.691,53.8Z" transform="translate(-2.261 -20.456)"/>
        </g>
      </g>
    </g>
  </g>
</svg>
